<svg xmlns="http://www.w3.org/2000/svg" aria-hidden="true" style="position:absolute;width:0;height:0;overflow:hidden">
  <defs>
    <symbol id="icon-amico" viewBox="0 0 35 32">
      <path fill="#f5f5f5" d="M5.075 29.307c6.767 3.511 17.739 3.511 24.506 0s6.767-9.203 0-12.714c-6.767-3.511-17.739-3.511-24.506 0s-6.767 9.203 0 12.714z" style="fill:var(--color1, #f5f5f5)"/>
      <path fill="#e6e6e6" d="M29.674 20.653c1.319 0 2.388-.506 2.388-1.13s-1.069-1.13-2.388-1.13-2.388.506-2.388 1.13 1.069 1.13 2.388 1.13zM5.033 27.265c1.209 0 2.19-.464 2.19-1.036s-.98-1.036-2.19-1.036c-1.209 0-2.19.464-2.19 1.036s.98 1.036 2.19 1.036zM21.29 29.258c1.258 0 2.278-.483 2.278-1.079S22.548 27.1 21.29 27.1s-2.278.483-2.278 1.079 1.02 1.079 2.278 1.079zM9.981 24.095c1.258 0 2.278-.483 2.278-1.079s-1.02-1.079-2.278-1.079-2.278.483-2.278 1.079 1.02 1.079 2.278 1.079z" style="fill:var(--color2, #e6e6e6)"/>
      <path fill="#02897a" d="M23.389 16.885c.056-.665 1.59-3.16 2.06-3.546s1.298-1.364.941-1.919-1.406-.308-2.392 1.422c-.764 1.342-1.001 4.31-1.001 4.31l.392-.267z" style="fill:var(--color3, #02897a)"/>
      <path fill="#fff" d="M23.179 16.822h-.006l-.015-.005c-.005-.002-.008-.006-.012-.011-.003-.004-.005-.009-.006-.014v-.016c.434-2.785 1.355-4.523 2.817-5.312a.041.041 0 0 1 .031-.003l.014.007a.03.03 0 0 1 .01.012c.003.005.004.01.005.015s0 .011-.001.016l-.007.014a.038.038 0 0 1-.012.01c-1.438.777-2.346 2.496-2.777 5.254-.002.009-.007.018-.014.023s-.016.009-.026.009z" style="fill:var(--color4, #fff)"/>
      <path fill="#37474f" d="M23.543 13.658s1.232-2.114 2.252-3.083c.565-.537.913-.882.882-1.288-.023-.308-.28-.472-.834-.337-1.104.27-1.696 1.381-2.077 2.625-.271.876-.222 2.083-.222 2.083z" style="fill:var(--color5, #37474f)"/>
      <path fill="#00ffe3" d="M23.543 13.658s1.232-2.114 2.252-3.083c.565-.537.913-.882.882-1.288-.023-.308-.28-.472-.834-.337-1.104.27-1.696 1.381-2.077 2.625-.271.876-.222 2.083-.222 2.083z" opacity=".2" style="fill:var(--color6, #00ffe3)"/>
      <path fill="#fff" d="M23.686 13.311h-.006c-.011-.002-.02-.008-.027-.016s-.009-.02-.007-.03c.439-2.748 2.106-3.783 2.606-4.035.01-.005.021-.006.031-.002s.019.01.023.02c.002.005.004.01.004.015s0 .011-.002.016c-.002.005-.004.01-.008.014s-.008.007-.013.009c-.492.248-2.13 1.265-2.563 3.976-.002.009-.007.018-.014.024s-.017.009-.026.009z" style="fill:var(--color4, #fff)"/>
      <path fill="#11b5e4" d="m30.442 7.417-.267-.497.214-.614V5.93l-.656.376v.376l.282.486a.035.035 0 0 0 .019.017l.407.233z" style="fill:var(--color7, #11b5e4)"/>
      <path d="m30.442 7.417-.267-.497.214-.614V5.93l-.656.376v.376l.282.486a.035.035 0 0 0 .019.017l.407.233z" opacity=".1" style="fill:var(--color8, #000)"/>
      <path fill="#11b5e4" d="m28.921 5.082 1.806-1.043a.445.445 0 0 1 .394 0l.162.092a.432.432 0 0 1 .197.339v1.454a.438.438 0 0 1-.197.339l-1.808 1.043a.445.445 0 0 1-.394 0l-.162-.092a.432.432 0 0 1-.196-.339V5.42a.438.438 0 0 1 .198-.337z" style="fill:var(--color7, #11b5e4)"/>
      <path fill="#fff" d="m28.921 5.082 1.806-1.043a.445.445 0 0 1 .394 0l.162.092a.432.432 0 0 1 .197.339v1.454a.438.438 0 0 1-.197.339l-1.808 1.043a.445.445 0 0 1-.394 0l-.162-.092a.432.432 0 0 1-.196-.339V5.42a.438.438 0 0 1 .198-.337z" opacity=".3" style="fill:var(--color4, #fff)"/>
      <path fill="#11b5e4" d="M29.475 7.303c-.109.062-.197.012-.197-.113V5.736a.438.438 0 0 1 .197-.339l1.808-1.043c.109-.063.197-.012.197.113v1.454a.438.438 0 0 1-.197.339z" style="fill:var(--color7, #11b5e4)"/>
      <path fill="#11b5e4" d="M28.724 6.872a.424.424 0 0 0 .196.339l.162.092a.439.439 0 0 0 .359.015c-.092.035-.162-.017-.162-.128V5.736a.406.406 0 0 1 .058-.192l-.554-.321a.397.397 0 0 0-.057.192l-.002 1.457z" style="fill:var(--color7, #11b5e4)"/>
      <path d="M28.724 6.872a.424.424 0 0 0 .196.339l.162.092a.439.439 0 0 0 .359.015c-.092.035-.162-.017-.162-.128V5.736a.406.406 0 0 1 .058-.192l-.554-.321a.397.397 0 0 0-.057.192l-.002 1.457z" opacity=".1" style="fill:var(--color8, #000)"/>
      <path fill="#11b5e4" d="m30.145 6.917.282.485c.004.007.01.012.017.016s.015.005.023.004.016-.004.022-.009.011-.011.014-.019l.298-.854v-.376l-.657.376v.376z" style="fill:var(--color7, #11b5e4)"/>
      <path fill="#fff" d="m30.379 6.421-.202-.053c-.192-.051-.422-.16-.422-.407a.646.646 0 0 1 .312-.49.2.2 0 0 1 .199-.018.191.191 0 0 1 .111.165c.02-.16.151-.412.31-.504.173-.099.313-.04.313.132 0 .245-.229.619-.421.89l-.201.284z" style="fill:var(--color4, #fff)"/>
      <path fill="#ff7800" d="m3.678 11.234 1.808-1.039a.433.433 0 0 1 .394 0l.162.091a.432.432 0 0 1 .197.338v1.454c-.004.068-.023.134-.058.192s-.082.109-.139.146l-1.805 1.039a.436.436 0 0 1-.394 0l-.162-.091a.44.44 0 0 1-.199-.342v-1.45a.425.425 0 0 1 .198-.339z" style="fill:var(--color9, #ff7800)"/>
      <path fill="#fff" d="m3.678 11.234 1.808-1.039a.433.433 0 0 1 .394 0l.162.091a.432.432 0 0 1 .197.338v1.454c-.004.068-.023.134-.058.192s-.082.109-.139.146l-1.805 1.039a.436.436 0 0 1-.394 0l-.162-.091a.44.44 0 0 1-.199-.342v-1.45a.425.425 0 0 1 .198-.339z" opacity=".3" style="fill:var(--color4, #fff)"/>
      <path fill="#ff7800" d="m5.199 13.571-.267-.498.215-.614v-.376l-.657.379v.376l.283.481a.04.04 0 0 0 .019.017l.407.235z" style="fill:var(--color9, #ff7800)"/>
      <path d="m5.199 13.571-.267-.498.215-.614v-.376l-.657.379v.376l.283.481a.04.04 0 0 0 .019.017l.407.235z" opacity=".1" style="fill:var(--color8, #000)"/>
      <path fill="#ff7800" d="M4.235 13.456c-.109.063-.197.012-.197-.113v-1.454a.43.43 0 0 1 .197-.337l1.808-1.043c.108-.062.196-.011.196.113v1.453c-.004.068-.023.134-.058.192s-.082.109-.139.146z" style="fill:var(--color9, #ff7800)"/>
      <path fill="#ff7800" d="M3.481 13.023a.438.438 0 0 0 .197.339l.162.091a.443.443 0 0 0 .36.016c-.093.035-.162-.018-.162-.129v-1.45a.394.394 0 0 1 .057-.192l-.553-.317a.385.385 0 0 0-.058.192l-.003 1.45z" style="fill:var(--color9, #ff7800)"/>
      <path d="M3.481 13.023a.438.438 0 0 0 .197.339l.162.091a.443.443 0 0 0 .36.016c-.093.035-.162-.018-.162-.129v-1.45a.394.394 0 0 1 .057-.192l-.553-.317a.385.385 0 0 0-.058.192l-.003 1.45z" opacity=".1" style="fill:var(--color8, #000)"/>
      <path fill="#ff7800" d="m4.902 13.07.282.481c.004.007.01.012.017.016s.015.005.023.004.016-.004.022-.009.011-.011.014-.019l.298-.854v-.376l-.656.376v.38z" style="fill:var(--color9, #ff7800)"/>
      <path fill="#fff" d="M4.453 12.202a.405.405 0 0 0-.185.321c0 .117.081.16.185.106a.412.412 0 0 0 .185-.32c.001-.117-.08-.168-.185-.106zM5.136 11.81a.405.405 0 0 0-.186.321c0 .117.081.164.186.106a.412.412 0 0 0 .185-.32c0-.117-.083-.164-.185-.106zM5.817 11.419a.412.412 0 0 0-.185.32c0 .117.081.16.185.106a.405.405 0 0 0 .185-.321c0-.118-.082-.165-.185-.106z" style="fill:var(--color4, #fff)"/>
      <path fill="#37474f" d="m22.845.704-7.852 4.5a.765.765 0 0 0-.35.601v17.262c0 .221.157.311.35.201l7.852-4.5a.774.774 0 0 0 .35-.601V.905c0-.221-.157-.311-.35-.201z" style="fill:var(--color5, #37474f)"/>
      <path fill="#455a64" d="m14.992 5.204 7.852-4.5c.173-.099.316-.037.344.136a.779.779 0 0 0-.344-.537l-.285-.16a.77.77 0 0 0-.7 0l-7.852 4.498a.713.713 0 0 0-.247.259l.985.561a.716.716 0 0 1 .247-.257z" style="fill:var(--color10, #455a64)"/>
      <path fill="#263238" d="M13.658 22.503a.76.76 0 0 0 .349.601l.285.16a.796.796 0 0 0 .64.028c-.162.062-.29-.03-.29-.229V5.802a.697.697 0 0 1 .103-.343l-.985-.561a.719.719 0 0 0-.103.343v17.261z" style="fill:var(--color11, #263238)"/>
      <path fill="#fafafa" d="m15.181 7.354 7.476-4.284c.115-.067.21-.013.21.12v13.068c-.004.072-.025.143-.062.205s-.087.116-.148.156l-7.476 4.284c-.115.067-.21.013-.21-.12V7.716a.461.461 0 0 1 .21-.36z" style="fill:var(--color12, #fafafa)"/>
      <path fill="#263238" d="M18.839 3.624c-.036.023-.065.055-.087.091s-.034.078-.036.12c0 .08.055.11.123.071a.27.27 0 0 0 .123-.211c0-.078-.055-.109-.123-.071zM17.677 4.866a.547.547 0 0 0-.242.423c0 .156.11.219.242.141a.54.54 0 0 0 .246-.423c0-.156-.111-.219-.246-.141zM18.279 4.813c0 .104.081.144.175.088l1.615-.928a.37.37 0 0 0 .174-.289c0-.103-.081-.143-.174-.087l-1.615.928a.368.368 0 0 0-.175.288z" style="fill:var(--color11, #263238)"/>
      <path fill="#37474f" d="M14.203 7.871c.057.037.105.087.14.146s.054.125.057.193c0 .124-.088.175-.197.113a.42.42 0 0 1-.196-.339c.002-.124.088-.174.196-.112zM14.203 9.376a.432.432 0 0 1 .197.339c0 .125-.088.176-.197.113a.432.432 0 0 1-.195-.335c0-.128.086-.179.195-.117z" style="fill:var(--color5, #37474f)"/>
      <path fill="#455a64" d="M14.142 7.901a.432.432 0 0 1 .197.339c0 .125-.088.176-.197.113a.432.432 0 0 1-.197-.339c0-.124.089-.175.197-.113zM14.142 9.407a.432.432 0 0 1 .197.339c0 .125-.088.176-.197.113a.432.432 0 0 1-.197-.339c0-.125.089-.176.197-.113z" style="fill:var(--color10, #455a64)"/>
      <path fill="#263238" d="M18.919 19.338a1.074 1.074 0 0 0-.485.835c0 .308.217.432.485.279a1.074 1.074 0 0 0 .485-.835c.001-.308-.216-.432-.485-.278z" style="fill:var(--color11, #263238)"/>
      <path fill="#fff" d="M16.73 20.717c-.069 0-.076-.08-.076-.109V7.541a.416.416 0 0 1 .189-.326l7.476-4.284a.16.16 0 0 1 .073-.022c.069 0 .076.075.076.108v13.068a.42.42 0 0 1-.189.326l-7.476 4.284a.146.146 0 0 1-.073.023z" style="fill:var(--color4, #fff)"/>
      <path fill="#37474f" d="M24.394 2.947c.031 0 .035.043.035.068v13.068a.387.387 0 0 1-.17.291l-7.476 4.284a.124.124 0 0 1-.053.018c-.031 0-.036-.043-.036-.069V7.54a.384.384 0 0 1 .17-.291l7.476-4.284a.112.112 0 0 1 .053-.018zm0-.08a.198.198 0 0 0-.094.028l-7.476 4.284c-.061.039-.112.093-.149.155s-.058.133-.061.205v13.067c0 .095.048.149.116.149a.185.185 0 0 0 .094-.029l7.476-4.284a.46.46 0 0 0 .209-.361V3.013c0-.094-.048-.148-.116-.148z" style="fill:var(--color5, #37474f)"/>
      <path fill="#37474f" d="M24.508 3.015c0-.133-.094-.187-.21-.12l-7.476 4.284c-.061.039-.112.093-.149.155s-.058.133-.061.205V8.61l7.896-4.525V3.014z" style="fill:var(--color5, #37474f)"/>
      <path d="M24.508 3.015c0-.133-.094-.187-.21-.12l-7.476 4.284c-.061.039-.112.093-.149.155s-.058.133-.061.205V8.61l7.896-4.525V3.014z" opacity=".1" style="fill:var(--color8, #000)"/>
      <path fill="#fff" d="M17.438 7.426c-.013-.005-.028-.007-.042-.005s-.027.007-.039.015a.318.318 0 0 0-.144.247.077.077 0 0 0 .031.075c.013.005.028.007.042.005s.028-.008.039-.016c.041-.027.076-.064.1-.107s.039-.09.043-.14c.002-.014 0-.029-.005-.042s-.014-.025-.026-.034z" style="fill:var(--color4, #fff)"/>
      <path fill="#fff" d="m17.608 7.153-.018.01v-.036c0-.051-.035-.071-.081-.046l-.339.194a.179.179 0 0 0-.081.137v.037l-.019.01a.237.237 0 0 0-.106.183v.326c0 .067.048.095.107.062l.536-.307c.031-.02.057-.047.075-.079s.029-.068.031-.104v-.328c.002-.066-.046-.093-.105-.059zm-.251.648a.176.176 0 0 1-.086.026.12.12 0 0 1-.056-.014.14.14 0 0 1-.063-.129.37.37 0 0 1 .174-.299.136.136 0 0 1 .143-.012.14.14 0 0 1 .062.129.377.377 0 0 1-.173.299zm.242-.436c-.027.015-.049 0-.049-.029.001-.017.006-.034.014-.048s.02-.027.035-.037c.027-.016.05 0 .05.028-.001.017-.005.034-.013.048s-.02.028-.034.037h-.003zM24.078 3.345l-.523.299c-.03.02-.055.046-.074.077s-.029.066-.031.102v.321c0 .065.047.092.104.059l.311-.178.122.121c.003.003.006.004.01.005s.008 0 .012-.001.007-.004.009-.007a.02.02 0 0 0 .003-.011v-.197l.056-.032a.23.23 0 0 0 .107-.179v-.321c0-.065-.049-.091-.107-.059z" style="fill:var(--color4, #fff)"/>
      <path fill="#37474f" d="M17.621 8.42c.273-.154.494-.029.494.281a1.063 1.063 0 0 1-.494.844c-.274.16-.495.031-.495-.281.009-.17.059-.335.145-.481s.206-.271.35-.363zM18.604 8.043l1.64-.94c.097-.055.175-.016.175.087a.38.38 0 0 1-.175.289l-1.64.94c-.096.055-.174.016-.174-.087a.38.38 0 0 1 .175-.289z" style="fill:var(--color5, #37474f)"/>
      <path fill="#fff" d="m18.604 8.043 1.64-.94c.097-.055.175-.016.175.087a.38.38 0 0 1-.175.289l-1.64.94c-.096.055-.174.016-.174-.087a.38.38 0 0 1 .175-.289z" opacity=".49" style="fill:var(--color4, #fff)"/>
      <path fill="#37474f" d="m18.549 8.709 1.125-.642c.066-.038.119-.011.119.06a.25.25 0 0 1-.12.198l-1.125.642c-.066.038-.12.01-.12-.061.003-.04.015-.079.036-.113s.049-.063.083-.085z" style="fill:var(--color5, #37474f)"/>
      <path fill="#fff" d="m18.549 8.709 1.125-.642c.066-.038.119-.011.119.06a.25.25 0 0 1-.12.198l-1.125.642c-.066.038-.12.01-.12-.061.003-.04.015-.079.036-.113s.049-.063.083-.085z" opacity=".49" style="fill:var(--color4, #fff)"/>
      <path fill="#37474f" d="M17.621 16.854c.273-.154.494-.028.494.281a1.063 1.063 0 0 1-.494.844c-.274.16-.495.031-.495-.281a1.066 1.066 0 0 1 .495-.844zM18.604 16.477l1.64-.941c.097-.055.175-.016.175.087-.004.058-.022.115-.053.165s-.072.092-.122.124l-1.64.941c-.096.055-.174.016-.174-.088a.377.377 0 0 1 .175-.288z" style="fill:var(--color5, #37474f)"/>
      <path fill="#fff" d="m18.604 16.477 1.64-.941c.097-.055.175-.016.175.087-.004.058-.022.115-.053.165s-.072.092-.122.124l-1.64.941c-.096.055-.174.016-.174-.088a.377.377 0 0 1 .175-.288z" opacity=".49" style="fill:var(--color4, #fff)"/>
      <path fill="#37474f" d="m18.549 17.143 1.125-.642c.066-.038.119-.011.119.06a.25.25 0 0 1-.12.198l-1.125.642c-.066.038-.12.01-.12-.06a.25.25 0 0 1 .12-.198z" style="fill:var(--color5, #37474f)"/>
      <path fill="#fff" d="m18.549 17.143 1.125-.642c.066-.038.119-.011.119.06a.25.25 0 0 1-.12.198l-1.125.642c-.066.038-.12.01-.12-.06a.25.25 0 0 1 .12-.198z" opacity=".49" style="fill:var(--color4, #fff)"/>
      <path fill="#f5f5f5" d="m17.467 10.012 6.212-3.562c.097-.055.175-.01.175.1v6.161a.39.39 0 0 1-.175.302l-6.212 3.582c-.097.055-.174.01-.174-.1v-6.183a.382.382 0 0 1 .175-.301z" style="fill:var(--color1, #f5f5f5)"/>
      <path fill="#37474f" d="M19.747 11.423a.153.153 0 0 0-.222-.035.153.153 0 0 0-.049.066l-2.181 4.114v.928c0 .111.081.156.174.1l6.212-3.564c.051-.033.093-.078.124-.13s.048-.111.051-.172v-2.053l-1.18-2.082c-.065-.116-.157-.109-.204.015l-1.571 4.135-1.154-1.323z" style="fill:var(--color5, #37474f)"/>
      <path fill="#00564c" d="M19.747 11.423a.153.153 0 0 0-.222-.035.153.153 0 0 0-.049.066l-2.181 4.114v.928c0 .111.081.156.174.1l6.212-3.564c.051-.033.093-.078.124-.13s.048-.111.051-.172v-2.053l-1.18-2.082c-.065-.116-.157-.109-.204.015l-1.571 4.135-1.154-1.323z" opacity=".09" style="fill:var(--color13, #00564c)"/>
      <path fill="#37474f" d="M17.948 11.679c.548-.312.993-1.072.993-1.698 0-.321-.116-.541-.301-.642l-1.172.671a.386.386 0 0 0-.175.301v1.455c.174.078.403.054.655-.087z" style="fill:var(--color5, #37474f)"/>
      <path fill="#fff" d="M17.948 11.679c.548-.312.993-1.072.993-1.698 0-.321-.116-.541-.301-.642l-1.172.671a.386.386 0 0 0-.175.301v1.455c.174.078.403.054.655-.087z" opacity=".36" style="fill:var(--color4, #fff)"/>
      <path fill="#37474f" d="m17.467 18.478 6.212-3.562c.097-.055.175-.016.175.088a.373.373 0 0 1-.175.288l-6.212 3.562c-.097.055-.174.016-.174-.088a.372.372 0 0 1 .174-.288z" style="fill:var(--color5, #37474f)"/>
      <path fill="#fff" d="m17.467 18.478 6.212-3.562c.097-.055.175-.016.175.088a.373.373 0 0 1-.175.288l-6.212 3.562c-.097.055-.174.016-.174-.088a.372.372 0 0 1 .174-.288z" opacity=".36" style="fill:var(--color4, #fff)"/>
      <path fill="#37474f" d="m17.467 19.23 6.212-3.56c.097-.055.175-.016.175.088a.373.373 0 0 1-.175.288l-6.212 3.562c-.097.055-.174.016-.174-.088a.372.372 0 0 1 .175-.29z" style="fill:var(--color5, #37474f)"/>
      <path fill="#fff" d="m17.467 19.23 6.212-3.56c.097-.055.175-.016.175.088a.373.373 0 0 1-.175.288l-6.212 3.562c-.097.055-.174.016-.174-.088a.372.372 0 0 1 .175-.29z" opacity=".36" style="fill:var(--color4, #fff)"/>
      <path fill="#fafafa" d="m18.425 6.658 4.432-2.539c.136-.08.242-.014.242.14a.53.53 0 0 1-.242.42l-4.431 2.532c-.136.08-.242.016-.242-.136a.536.536 0 0 1 .242-.417z" style="fill:var(--color12, #fafafa)"/>
      <path fill="#f28f8f" d="m31.445 11.473.314.572-.489.416-.448-.705.623-.283z" style="fill:var(--color14, #f28f8f)"/>
      <path fill="#e0e0e0" d="M30.266 10.199c.312 0 .655.116.773.359l.485.998s-.275.401-.712.372l-.545-1.729z" style="fill:var(--color15, #e0e0e0)"/>
      <path fill="#37474f" d="M31.421 12.134c.091-.168.114-.177.168-.213s.387-.086.525-.098c.161-.014.22.016.175.155-.124.35-.277.69-.455 1.015-.044.057-.052.11-.235.128-.17.016-.384.026-.447.029s-.15.02-.095-.164c.072-.208.156-.413.25-.612.07-.153.114-.24.114-.24z" style="fill:var(--color5, #37474f)"/>
      <path fill="#263238" d="M27.782 17.81c-.081-.04-.127.058-.197.136a.594.594 0 0 0-.138.205c-.017.092.068.241.162.321s.202.139.236.315a.432.432 0 0 0 .287.361c.202.087.473.059.565 0 .108-.07.009-.147-.143-.363-.199-.282-.354-.481-.354-.748l-.418-.227z" style="fill:var(--color11, #263238)"/>
      <path fill="#ffa8a7" d="m27.941 17.578-.162.241c-.035.049-.049.11-.038.169s.044.112.093.147l.005.004c.05.029.108.04.165.032s.109-.037.147-.08l.255-.276-.466-.236z" style="fill:var(--color16, #ffa8a7)"/>
      <path fill="#37474f" d="M30.941 12.938c.01.303-.076 1.528-.287 2.07s-.333.878-.399.992-1.977 1.96-1.977 1.96-.323-.023-.376-.335c0 0 .783-1.322.952-1.593s.771-.687.771-.687l-.055-2.371 1.371-.035z" style="fill:var(--color5, #37474f)"/>
      <path fill="#ffa8a7" d="M28.11 12.643c0-.052.162-.651.242-.928l.592.202-.139.436-.521.535a.217.217 0 0 1-.174-.245zM30.52 19.391l.404-.091-.134-.584-.404.091.134.584z" style="fill:var(--color16, #ffa8a7)"/>
      <path fill="#37474f" d="M30.941 12.938h-1.938a6.707 6.707 0 0 0-.073.849c-.015.834.766 2.35.766 2.35-.038.337-.021.678.05 1.01.171.664.638 1.79.638 1.79s.293.041.438-.127c0 0-.259-2.284-.328-2.868-.075-.634-.269-1.79-.269-1.79.128-.127.244-.265.347-.412.18-.238.305-.511.368-.802z" style="fill:var(--color5, #37474f)"/>
      <path fill="#11b5e4" d="M29.627 10.216c-.372.089-.878.205-1.024.604s-.357 1.108-.357 1.108c.081.14.529.257.685.176l.073-.241v1.073c.291.314 1.304.46 1.938 0v-2.005c0-.321-.179-.706-.674-.734l-.64.019z" style="fill:var(--color7, #11b5e4)"/>
      <path fill="#e0e0e0" d="m29.003 11.865.186-.583-.186.844v-.261z" style="fill:var(--color15, #e0e0e0)"/>
      <path fill="#263238" d="M29.487 8.577a.223.223 0 0 0-.183.064c-.081.08-.062.227 0 .566l.242.027-.06-.658zM30.901 8.479a.383.383 0 0 0 .149-.028c.074-.043.094.042.052.115a.343.343 0 0 1-.281.186c0-.01-.069-.188-.069-.188l.149-.084z" style="fill:var(--color11, #263238)"/>
      <path fill="#ffa8a7" d="M29.601 9.235c-.036.022-.087-.047-.132-.093-.017-.02-.04-.035-.065-.044s-.052-.012-.078-.007a.15.15 0 0 0-.119.093c-.073.154.094.359.192.427.027.024.061.038.098.041s.072-.005.103-.024l.026.59a.644.644 0 0 0 .477.361c.349.046.277-.241.162-.379v-.214a.848.848 0 0 0 .266.013c.045-.012.154-.142.224-.288.149-.292.182-.63.093-.945-.125-.528-.696-.544-1.036-.331s-.211.801-.211.801z" style="fill:var(--color16, #ffa8a7)"/>
      <path fill="#263238" d="M29.601 9.295c-.018 0-.086-.113-.132-.153-.062-.056.018-.562.018-.562a.342.342 0 0 1 .061-.321c.123-.128.36-.107.534-.112a1.58 1.58 0 0 0 .622-.124c.247-.107.266-.119.296-.011a.596.596 0 0 1-.105.52l-.081.13s-.075.063-.305.091-.623-.095-.672-.102c-.067-.009-.081.055-.117.231-.031.152-.057.413-.118.414z" style="fill:var(--color11, #263238)"/>
      <path fill="#263238" d="m29.488 8.617-.218-.116a.116.116 0 0 1 .07-.06.124.124 0 0 1 .093.006.128.128 0 0 1 .056.171z" style="fill:var(--color11, #263238)"/>
      <path fill="#f28f8f" d="M30.265 9.985a2.513 2.513 0 0 1-.435-.124.383.383 0 0 1-.156-.153.482.482 0 0 0 .089.18c.081.105.502.182.502.182v-.085z" style="fill:var(--color14, #f28f8f)"/>
      <path fill="#263238" d="M30.276 9.223c0 .017-.006.034-.019.046s-.029.02-.046.02c-.009 0-.017-.002-.025-.006s-.015-.009-.021-.015a.064.064 0 0 1-.018-.047c0-.017.006-.034.019-.046s.029-.02.046-.02c.009 0 .017.002.025.006s.015.009.021.015a.064.064 0 0 1 .018.047zM30.207 8.98l-.138.08c-.005-.009-.009-.02-.01-.03s0-.021.003-.032a.082.082 0 0 1 .04-.048c.018-.009.039-.011.059-.006s.036.018.047.036z" style="fill:var(--color11, #263238)"/>
      <path fill="#f28f8f" d="m30.236 9.654.148.055c-.007.019-.022.035-.04.044s-.04.01-.06.004c-.01-.004-.019-.009-.027-.016s-.014-.016-.019-.025a.082.082 0 0 1-.002-.062z" style="fill:var(--color14, #f28f8f)"/>
      <path fill="#263238" d="m30.853 9.034-.126-.096a.082.082 0 0 1 .11-.017c.009.006.016.014.021.023s.009.019.011.03c.001.011.001.021-.002.032s-.008.02-.014.028zM30.814 9.205c0 .017-.006.034-.019.046s-.029.02-.046.02c-.009 0-.017-.002-.025-.006s-.015-.009-.021-.015a.064.064 0 0 1-.018-.047c0-.017.006-.034.019-.046s.029-.02.046-.02c.018.001.034.008.046.021s.019.029.018.047z" style="fill:var(--color11, #263238)"/>
      <path fill="#f28f8f" d="m30.509 9.197-.061.382.212-.025-.152-.357z" style="fill:var(--color14, #f28f8f)"/>
      <path fill="#263238" d="m30.878 19.105-.013-.058c.042.008.224.307.404.437.197.142.367.226.455.29.118.086-.052.262-.342.278-.144.007-.404-.036-.485-.112s-.139-.202-.204-.257-.193-.103-.237-.172a.51.51 0 0 1-.025-.216c0-.075.006-.16.032-.156l.01.043a.508.508 0 0 0 .242.054c.07-.003.197-.018.163-.131zM30.444 15.552s-.172-1.214-.218-1.401c.138-.075.267-.166.383-.272a3.13 3.13 0 0 1-.262.325l.097 1.348zM29.406 15.51s.207.511.291.624c0 0-.021.39-.019.468l-.108.094a2.432 2.432 0 0 1 .048-.525 3.144 3.144 0 0 1-.212-.661z" style="fill:var(--color11, #263238)"/>
      <path fill="#ffa8a7" d="M28.808 12.353s1.629.173 1.82.115.448-.247.583-.327c.135-.08.237-.085.237-.052s-.118.212-.145.286c-.027.075.127.075.329.028s.284-.16.336-.095c.052.066-.112.401-.448.527s-.585.042-.863.054c-.278.012-1.989.12-2.375 0a.336.336 0 0 1 .133-.327 1.21 1.21 0 0 1 .391-.209zM19.776 20.082c.004-.052.103-.614.171-.928l.665.202-.107.44-.552.531a.22.22 0 0 1-.177-.245z" style="fill:var(--color16, #ffa8a7)"/>
      <path fill="#263238" d="M21.233 15.329h.323c.238 0 .467.094.636.261s.263.394.263.631v2.275h-2.121v-2.275c0-.237.095-.464.263-.631s.397-.261.636-.261z" style="fill:var(--color11, #263238)"/>
      <path fill="#f28f8f" d="m22.991 18.902.314.572-.489.415-.447-.705.623-.282z" style="fill:var(--color14, #f28f8f)"/>
      <path fill="#455a64" d="M21.812 17.627c.312 0 .655.115.773.359l.485.998s-.275.401-.712.373l-.545-1.729z" style="fill:var(--color10, #455a64)"/>
      <path fill="#263238" d="M22.064 27.523c.107.143.228.275.36.395a.176.176 0 0 1 .049.063c.014.042.032.142-.155.183a.677.677 0 0 1-.548-.118c-.136-.109-.12-.301-.246-.427-.094-.092-.22-.128-.291-.241-.049-.08-.023-.176.022-.294s.076-.225.119-.21l-.015.059c.044.094.323.153.46.108.073.164.155.325.246.48z" style="fill:var(--color11, #263238)"/>
      <path fill="#ffa8a7" d="M22.174 27.661a1.901 1.901 0 0 1-.11-.138 3.36 3.36 0 0 1-.191-.367.33.33 0 0 1-.018-.241l.092-.309-.485-.111-.105.432c-.023.099.049.197.181.339s.284.457.404.546c.12.089.219.098.28.067s.077-.059-.049-.221z" style="fill:var(--color16, #ffa8a7)"/>
      <path fill="#263238" d="M20.761 27.795v-.068c.027.08.152.422.341.594.151.136.356.294.408.445s-.285.211-.426.186a.861.861 0 0 1-.489-.261c-.081-.099-.132-.216-.191-.294s-.191-.16-.221-.253a.554.554 0 0 1 .027-.249c.023-.08.046-.176.075-.168v.056a.385.385 0 0 0 .242.08c.066 0 .235-.015.234-.068z" style="fill:var(--color11, #263238)"/>
      <path fill="#ffa8a7" d="m21.238 28.44-.136-.12a1.392 1.392 0 0 1-.291-.461.647.647 0 0 1-.05-.249v-.27h-.477v.452c.023.099.242.36.366.531a.698.698 0 0 0 .431.286c.182.024.276-.032.157-.167z" style="fill:var(--color16, #ffa8a7)"/>
      <path fill="#37474f" d="M20.379 20.434c-.369.802.014 3.627.014 3.627-.011.131-.162.387-.216.963-.066.677.103 2.376.103 2.376a.507.507 0 0 0 .485.019s.455-2.56.54-3.233l.273-2.159.404 2.107a2.738 2.738 0 0 0-.267.526c-.096.298-.291 1.993-.291 1.993a.6.6 0 0 0 .493.143s.933-2.326.975-2.801c.025-.285-.393-3.675-.393-3.675l-2.119.114z" style="fill:var(--color5, #37474f)"/>
      <path fill="#263238" d="m21.574 22.023.065-.464s.508-.104.738-.321a1.316 1.316 0 0 1-.6.396l-.068.448.081 1.037-.216-1.096z" style="fill:var(--color11, #263238)"/>
      <path fill="#f03e3d" d="M21.035 17.648a.938.938 0 0 0-.626.509.8.8 0 0 0-.023.606l.326.949s-.154.371-.334.722c.829.46 1.864.218 2.114-.117.01-.071-.004-.392.016-.756.021-.389.075-.829.014-1.069-.115-.447-.329-.866-.754-.866l-.732.022z" style="fill:var(--color17, #f03e3d)"/>
      <path fill="#455a64" d="M20.908 17.648c-.283.039-.698.096-.842.764s-.186.912-.186.912a.938.938 0 0 0 .701.267l.146-.513.181-1.429z" style="fill:var(--color10, #455a64)"/>
      <path fill="#263238" d="M21.068 18.211a.382.382 0 0 1-.263-.108.36.36 0 0 1-.108-.261v-1.074h.372v1.443z" style="fill:var(--color11, #263238)"/>
      <path fill="#ffa8a7" d="M22.107 15.754c.112.066.25.346.237.932-.011.497-.174.621-.255.656s-.238.014-.391-.012v.298s.211.241.198.381-.305.169-.503.035a1.294 1.294 0 0 1-.323-.337v-.722a.191.191 0 0 1-.271.026c-.169-.111-.175-.387-.077-.481s.309-.067.349.069c.2-.009.394-.067.565-.168a.908.908 0 0 0 .472-.677z" style="fill:var(--color16, #ffa8a7)"/>
      <path fill="#263238" d="M21.785 16.562c0 .012-.003.024-.01.035s-.016.018-.028.023a.063.063 0 0 1-.086-.043c-.003-.012-.002-.024.002-.036s.012-.022.022-.029a.061.061 0 0 1 .059-.008.057.057 0 0 1 .021.013c.006.006.011.013.015.02s.005.016.006.024z" style="fill:var(--color11, #263238)"/>
      <path fill="#f28f8f" d="m21.802 16.983.146.047a.074.074 0 0 1-.095.053.08.08 0 0 1-.051-.098z" style="fill:var(--color14, #f28f8f)"/>
      <path fill="#263238" d="m22.301 16.37-.127-.087a.077.077 0 0 1 .079-.034c.01.002.019.006.028.012a.078.078 0 0 1 .021.109zM22.272 16.517c.001.017-.005.034-.016.046s-.027.021-.044.022a.067.067 0 0 1-.067-.062c0-.008.001-.016.004-.024s.007-.015.013-.021c.006-.006.012-.011.02-.015s.016-.006.024-.006.017.001.024.003a.062.062 0 0 1 .036.032.048.048 0 0 1 .006.024z" style="fill:var(--color11, #263238)"/>
      <path fill="#f28f8f" d="m21.975 16.481.011.376.199-.062-.21-.314zM21.698 17.331c-.162-.021-.493-.115-.544-.245a.33.33 0 0 0 .116.166c.099.084.428.18.428.18v-.1z" style="fill:var(--color14, #f28f8f)"/>
      <path fill="#37474f" d="M22.966 19.562c.091-.168.114-.176.169-.213s.387-.087.525-.099c.162-.014.22.016.175.156a7.01 7.01 0 0 1-.459 1.015c-.044.058-.052.111-.235.128s-.385.026-.448.03-.15.019-.094-.165c.072-.208.155-.413.25-.612l.117-.24z" style="fill:var(--color5, #37474f)"/>
      <path fill="#ffa8a7" d="M20.506 19.8s1.477.155 1.669.096.448-.249.586-.327c.138-.079.237-.085.237-.053s-.118.213-.145.286c-.027.074.128.075.33.028s.283-.16.337-.095c.053.066-.112.401-.448.527s-.586.043-.863.054c-.278.011-1.869.135-2.254.014a.336.336 0 0 1 .133-.327c.125-.095.267-.165.419-.205z" style="fill:var(--color16, #ffa8a7)"/>
      <path fill="#37474f" d="M20.612 19.423c.063-.17.117-.344.162-.521 0 0-.027.387-.136.595l-.025-.075z" style="fill:var(--color5, #37474f)"/>
      <path fill="#f28f8f" d="m8.659 14.652-.262.563.489.415.422-.708-.649-.27z" style="fill:var(--color14, #f28f8f)"/>
      <path fill="#37474f" d="M9.864 13.364c-.312 0-.655.116-.773.359l-.485.999s.275.401.712.372l.545-1.729z" style="fill:var(--color5, #37474f)"/>
      <path fill="#ffa8a7" d="M11.217 22.299h-.431v.623h.431v-.623zM9.7 21.528l-.431.015.022.623.431-.015-.022-.623z" style="fill:var(--color16, #ffa8a7)"/>
      <path fill="#37474f" d="M11.187 16.214c0 .409.053 3.053.053 3.053.011.117.121.334.097.786-.032.614-.085 2.318-.085 2.318s-.202.199-.485 0c0 0-.391-2.317-.468-2.925a65.98 65.98 0 0 1-.182-1.972l-.4 1.697s.07.401.086.68-.073 1.908-.073 1.908a.478.478 0 0 1-.469.018s-.346-2.376-.39-2.63.303-2.934.303-2.934h2.013z" style="fill:var(--color5, #37474f)"/>
      <path fill="#02897a" d="M10.539 13.383h.006a.848.848 0 0 1 .646.825v2.005c-.302.326-1.355.481-2.019 0v-2.086c0-.333.187-.734.701-.764l.666.018z" style="fill:var(--color3, #02897a)"/>
      <path fill="#263238" d="M10.684 11.677c.035-.004.07 0 .103.012s.063.03.087.055c.081.08.065.237 0 .589l-.252.029.062-.684zM9.213 11.579a.408.408 0 0 1-.158-.031c-.081-.044-.098.043-.056.119a.365.365 0 0 0 .293.194c0-.01.072-.195.072-.195l-.152-.086z" style="fill:var(--color11, #263238)"/>
      <path fill="#ffa8a7" d="M10.566 12.361c.038.022.091-.049.137-.097.018-.021.041-.037.067-.046s.054-.012.081-.008a.163.163 0 0 1 .124.098c.081.16-.098.374-.2.444a.178.178 0 0 1-.21.018l-.027.613a.65.65 0 0 1-.497.374c-.363.049-.288-.248-.169-.394v-.223a.846.846 0 0 1-.275.014c-.048-.013-.162-.148-.233-.3-.081-.17-.217-.472-.096-.983.13-.55.727-.566 1.077-.345s.22.834.22.834z" style="fill:var(--color16, #ffa8a7)"/>
      <path fill="#263238" d="M10.566 12.424c.019 0 .09-.117.137-.16.065-.059-.019-.587-.019-.587s.065-.2-.062-.333c-.128-.133-.376-.111-.556-.117a1.645 1.645 0 0 1-.646-.129c-.257-.111-.276-.123-.308-.012a.615.615 0 0 0 .109.541l.128.047s.069.061.309.09c.221.016.443.012.664-.012.069-.01.081.057.122.241.032.16.06.432.123.433z" style="fill:var(--color11, #263238)"/>
      <path fill="#263238" d="m10.683 11.719.227-.121a.124.124 0 0 0-.171-.057.136.136 0 0 0-.055.178z" style="fill:var(--color11, #263238)"/>
      <path fill="#f28f8f" d="M9.874 13.141c.155-.029.306-.072.453-.129a.39.39 0 0 0 .162-.16.532.532 0 0 1-.092.188c-.086.109-.523.189-.523.189l.001-.087z" style="fill:var(--color14, #f28f8f)"/>
      <path fill="#263238" d="M9.955 12.278c0 .013.005.026.012.037s.018.019.031.024c.012.005.026.006.039.003s.025-.01.034-.019.016-.022.018-.035a.067.067 0 0 0-.067-.08.068.068 0 0 0-.067.069zM10.026 12.026l.145.08c.01-.02.012-.042.006-.064s-.021-.039-.04-.05a.085.085 0 0 0-.063-.006.082.082 0 0 0-.048.04z" style="fill:var(--color11, #263238)"/>
      <path fill="#f28f8f" d="m9.96 12.731-.153.058c.003.01.009.02.016.028s.016.015.025.02c.01.005.02.007.031.008s.022-.001.032-.005a.083.083 0 0 0 .049-.108z" style="fill:var(--color14, #f28f8f)"/>
      <path fill="#263238" d="m9.355 12.081.13-.101a.08.08 0 0 0-.053-.033.086.086 0 0 0-.061.016c-.017.014-.029.034-.032.056s.003.044.016.062zM9.395 12.259c0 .018.007.035.019.048s.03.02.048.021c.018 0 .036-.008.048-.021s.02-.031.02-.049a.067.067 0 0 0-.017-.052.067.067 0 0 0-.079-.017c-.009.004-.017.009-.023.017s-.011.015-.014.024a.067.067 0 0 0-.003.028v.001z" style="fill:var(--color11, #263238)"/>
      <path fill="#f28f8f" d="m9.739 12.196-.023.402-.211-.071.233-.33z" style="fill:var(--color14, #f28f8f)"/>
      <path fill="#263238" d="M10.785 22.711v-.062c-.041.018-.137.381-.308.536-.136.123-.323.266-.369.401s.258.221.385.199c.148-.026.404-.129.468-.225s.095-.237.146-.307.173-.148.201-.229a.522.522 0 0 0-.025-.225c-.02-.075-.041-.16-.067-.152v.046a.337.337 0 0 1-.216.072c-.062.005-.216-.007-.216-.055zM9.287 22.033c-.023 0-.041.032-.09.085a.912.912 0 0 1-.254.181c-.162.08-.475.204-.617.267-.088.04-.081.146.007.207s.313.104.579.045c.145-.032.334-.164.452-.16s.342.006.43-.055c.088-.06.053-.189.028-.3s-.066-.305-.107-.297v.038c-.052.08-.316.11-.43.053v-.064z" style="fill:var(--color11, #263238)"/>
      <path fill="#37474f" d="M8.71 15.3c-.091-.169-.114-.176-.169-.213s-.387-.087-.525-.098c-.162-.014-.221.016-.175.155.125.35.277.689.456 1.016.044.057.053.11.235.127s.385.026.448.03.15.019.094-.165a5.904 5.904 0 0 0-.25-.612c-.066-.152-.114-.239-.114-.239z" style="fill:var(--color5, #37474f)"/>
      <path fill="#ffa8a7" d="M12.021 15.809a17.406 17.406 0 0 0-.242-.928l-.591.202.139.436.52.535a.217.217 0 0 0 .174-.245z" style="fill:var(--color16, #ffa8a7)"/>
      <path fill="#ffa8a7" d="M11.324 15.519s-1.63.173-1.821.115-.448-.249-.586-.327c-.138-.079-.237-.085-.237-.052s.118.212.145.286c.027.074-.128.075-.33.028s-.283-.16-.337-.095c-.053.066.112.401.448.527s.586.042.863.054c.278.011 1.989.12 2.375 0 .01-.061.003-.124-.02-.181s-.063-.107-.113-.144a1.23 1.23 0 0 0-.387-.209z" style="fill:var(--color16, #ffa8a7)"/>
      <path fill="#455a64" d="M10.675 13.429c.256.084.764.127.928.677s.246.907.246.907c-.097.128-.485.277-.662.221l-.512-1.806z" style="fill:var(--color10, #455a64)"/>
      <path fill="#37474f" d="m11.187 15.235-.175-.618.175.87v-.252zM7.511 16.532c-.008.01-.077.124-.077.124l-.316.449-.308.458c-.01.014-.024.024-.04.03s-.034.006-.05.001l-.021-.007a7.045 7.045 0 0 1-.479-.203c-.17-.08-.162-.103-.162-.132a.397.397 0 0 1 0-.069c.035-.066.142-.23.287-.438.257-.371.38-.535.457-.642.011-.016.027-.027.046-.032s.038-.003.055.005c.138.046.418.165.565.225h.006c.079.043.036.228.035.231z" style="fill:var(--color5, #37474f)"/>
      <path fill="#37474f" d="m7.519 16.518-.081.138-.309.458-.323.447c-.01.014-.024.024-.04.03s-.034.006-.05.001l-.021-.007a7.045 7.045 0 0 1-.479-.203c-.17-.08-.162-.103-.162-.132a.397.397 0 0 1 0-.069c.162.071.673.311.69.302.04-.019.387-.571.571-.853.092-.14.133-.2.162-.248.005-.006.009-.012.011-.02s.003-.015.002-.023-.004-.015-.008-.021-.01-.012-.016-.016H7.46a.13.13 0 0 1 .069.096c.009.019.013.04.011.061s-.009.041-.021.059z" style="fill:var(--color5, #37474f)"/>
      <path d="m7.519 16.518-.081.138-.309.458-.323.447c-.01.014-.024.024-.04.03s-.034.006-.05.001l-.021-.007a7.045 7.045 0 0 1-.479-.203c-.17-.08-.162-.103-.162-.132a.397.397 0 0 1 0-.069c.162.071.673.311.69.302.04-.019.387-.571.571-.853.092-.14.133-.2.162-.248.005-.006.009-.012.011-.02s.003-.015.002-.023-.004-.015-.008-.021-.01-.012-.016-.016H7.46a.13.13 0 0 1 .069.096c.009.019.013.04.011.061s-.009.041-.021.059z" opacity=".1" style="fill:var(--color8, #000)"/>
      <path fill="#fafafa" d="m6.807 16.208.567.236-.604.892-.564-.257.601-.87z" style="fill:var(--color12, #fafafa)"/>
      <path fill="#ffa8a7" d="M6.648 19.317c.155-.044.389-.617.565-1.267s.269-.793.275-.998c.006-.205-.009-.473-.009-.473l-.307.445a.791.791 0 0 0-.081-.246c-.04-.08-.114-.144-.174-.095-.032.026.053.136.035.381-.002.098.008.196.029.291l-.57 1.372.237.59z" style="fill:var(--color16, #ffa8a7)"/>
      <path fill="#f28f8f" d="M4.354 16.472c-.18-.05-.333.045-.418.33a10.97 10.97 0 0 0-.323 1.635c-.024.198-.052.439.139.457.145.014.565-.066.639-.138.099-.095.081-.477.081-.477h-.218l.061-.392c.048-.307.12-.695.12-.695l-.081-.72z" style="fill:var(--color14, #f28f8f)"/>
      <path fill="#ffa8a7" d="m5.411 16.191-.074.643-.638.074.092-.853.619.136z" style="fill:var(--color16, #ffa8a7)"/>
      <path fill="#263238" d="M4.045 15.253c.053-.594.376-.837.627-.897.506-.118 1.005.051 1.212.401a.884.884 0 0 1 0 .694c-.11.249-1.836-.201-1.836-.201z" style="fill:var(--color11, #263238)"/>
      <path fill="#ffa8a7" d="M5.915 15.572s.091.245.067.263a.343.343 0 0 1-.119.021l.052-.284z" style="fill:var(--color16, #ffa8a7)"/>
      <path fill="#ffa8a7" d="M5.643 14.799c.12.103.323.289.269.802-.06.531-.189.675-.276.726-.058.035-.316-.026-.435-.095-.149-.087-.478-.313-.578-.617-.119-.358-.059-.784.201-.896a.851.851 0 0 1 .819.08z" style="fill:var(--color16, #ffa8a7)"/>
      <path fill="#263238" d="M5.791 14.813a.957.957 0 0 1-.345.746s-.075-.193-.242-.149-.162.263-.042.382c.031.034.071.058.116.07s.092.011.136-.002a.726.726 0 0 1-.204.401.953.953 0 0 1-.953-.329c-.369-.44-.26-1.14.317-1.346a1.167 1.167 0 0 1 1.219.227zM4.623 25.858l.275.38a.915.915 0 0 1-.4.08c-.246.01-.314-.071-.323-.09-.042-.089.023-.249.041-.386l.406.015z" style="fill:var(--color11, #263238)"/>
      <path fill="#263238" d="M4.881 26.054s.334-.022.565-.051.414.08.359.177c-.054.097-.182.173-.38.241-.169.057-.372.098-.549.15s-.297.116-.4.08c-.115-.039-.162-.085-.154-.168.025-.118.056-.234.093-.349l.465-.081z" style="fill:var(--color11, #263238)"/>
      <path fill="#f28f8f" d="M4.175 25.474s.041.345.044.42.339.098.404-.038l.011-.422-.459.04z" style="fill:var(--color14, #f28f8f)"/>
      <path fill="#ffa8a7" d="m4.514 25.687-.117.524s-.012.063.263.104.705-.143.779-.18c.074-.037.081-.112-.188-.097s-.365.016-.365.016l.088-.233-.46-.135z" style="fill:var(--color16, #ffa8a7)"/>
      <path fill="#455a64" d="M4.175 18.674c-.23.355-.448.668-.495 1.068-.099.844.225 1.808.293 2.432a1.12 1.12 0 0 0-.217.609c0 .258.419 2.691.419 2.691s.304.092.458-.04l.288-4.476-.152-.545-.594-1.739z" style="fill:var(--color10, #455a64)"/>
      <path fill="#37474f" d="m4.921 20.958-.152-.545a3.694 3.694 0 0 1-.821-.321s.156.281.601.435l.232.7.02 1.604.12-1.874z" style="fill:var(--color5, #37474f)"/>
      <path fill="#455a64" d="M4.175 18.674c-.123.199-.418.541-.355.868.076.401.291.676.949.871l.617 2.22s-.323.299-.419.583-.454 2.471-.454 2.471.11.178.457.135c0 0 1.212-2.743 1.292-2.919.103-.181.14-.392.103-.596-.039-.287-.451-3.433-.451-3.433l-1.74-.199z" style="fill:var(--color10, #455a64)"/>
      <path fill="#ffb900" d="M4.063 16.671a.306.306 0 0 1 .333-.194c.43.116 1.1.27 1.227.306 0 0-.057.824.439 1.114-.023.184-.149.975-.149.975s-.596.287-1.086.146c-.49-.141-.655-.345-.655-.345l.242-.397c-.053-.129-.255-.568-.386-.975a1.184 1.184 0 0 1 .036-.63z" style="fill:var(--color18, #ffb900)"/>
      <path fill="#e0e0e0" d="M4.354 18.121c.204.122.418.227.639.314a1.21 1.21 0 0 1-.572-.16l-.067-.153zM6.051 17.836a.886.886 0 0 1-.413-.385.844.844 0 0 0 .412.636v-.25z" style="fill:var(--color15, #e0e0e0)"/>
      <path fill="#ffa8a7" d="M5.627 16.784c.271.08.439.106.585.236.192.172.391 1.142.431 1.343.07.347.148.708.072.87-.055.117-.354.205-.485-.174-.027-.08-.033-.117-.057-.189-.124-.363-.309-1.056-.309-1.056s-.366-.201-.237-1.03z" style="fill:var(--color16, #ffa8a7)"/>
      <path fill="#263238" d="M4.316 14.585c-.096.055-.27.109-.378.611a7.631 7.631 0 0 0-.157 1.277c.004.156.329.588 1.014.547s.934-.44.934-.44-.337-.136-.31-.722c0 0-.119.232-.444.115s-.658-1.389-.658-1.389z" style="fill:var(--color11, #263238)"/>
    </symbol>
  </defs>
</svg>